<svg version="1.1" xmlns="http://www.w3.org/2000/svg" xmlns:xlink="http://www.w3.org/1999/xlink" width="279.07355" height="107.40289" viewBox="0,0,279.07355,107.40289"><g transform="translate(-180.46322,-126.29855)"><g data-paper-data="{&quot;isPaintingLayer&quot;:true}" fill-opacity="0.5098" fill="#ffffff" fill-rule="nonzero" stroke="none" stroke-width="0.5" stroke-linecap="butt" stroke-linejoin="miter" stroke-miterlimit="10" stroke-dasharray="" stroke-dashoffset="0" style="mix-blend-mode: normal"><path d="M215.96577,233.53088c-1,0 -2,0 -3,0c-2.46684,0 -4.96698,0.37206 -7.40046,-0.03228c-7.27486,-1.20876 -13.34829,-6.69759 -18.36731,-11.69995c-0.48928,-0.48766 -4.23768,-4.2051 -4.40773,-4.53602c-2.22607,-4.33187 -2.3245,-9.51974 -2.3245,-14.23175c0,-0.7832 -0.02879,-6.29625 0.10727,-6.72446c0.40447,-1.27296 1.56188,-2.18208 2.15046,-3.38107c1.30026,-2.64876 1.6802,-5.7151 3.15517,-8.27069c0.94168,-1.63159 2.47492,-2.88639 3.33573,-4.56205c5.31584,-8.85371 12.10624,-16.36765 19.44121,-23.50444c1.23857,-1.20511 2.09028,-2.79116 3.41577,-3.89996c3.06725,-2.56582 7.15904,-4.06407 10.30941,-6.59068c3.42328,-2.74548 6.63908,-6.27947 10.58408,-8.35754c0.80536,-0.42423 1.87443,-0.08115 2.68578,-0.49382c2.94879,-1.4998 5.29964,-4.03091 8.27047,-5.48657c0.13886,-0.06804 5.94297,-1.99563 6.24651,-2.09789c4.08563,-1.37648 7.43716,-3.07418 11.79813,-3.13082c8.56855,0 17.91418,-1.28528 25.95671,2.1903c6.72285,2.90528 9.64933,7.369 14.04194,12.80018c2.08775,2.58137 3.95657,5.33266 5.97186,7.97099c1.9205,2.51423 4.4599,4.55352 6.15611,7.2242c1.61079,2.53619 2.5549,5.44526 4.03565,8.05951c0.61581,1.08721 3.65128,5.24921 4.10809,6.20818c0.44592,0.93612 0.32022,2.09472 0.82901,2.99821c0.71423,1.26831 1.8423,2.25408 2.76344,3.38113c1.16711,1.1638 2.06342,2.65197 3.45151,3.54068c4.69187,3.0039 12.56618,-3.10871 16.56764,-5.10944c4.25925,-2.12963 7.79811,-4.39353 11.80371,-6.89056c2.48032,-1.54619 5.42479,-2.27401 7.85255,-3.90148c0.83134,-0.55729 1.28814,-1.58541 2.14745,-2.09852c1.00887,-0.60242 2.25438,-0.68629 3.32548,-1.16949c1.46109,-0.65914 2.727,-1.75064 4.25066,-2.24832c7.69978,-2.51502 17.76973,-0.95556 25.73819,-0.95556c2.45868,0.01393 4.86187,0.74641 7.30546,1.01873c4.85528,0.5411 9.84151,-0.02834 14.67316,1.20267c3.02355,0.77034 5.97117,1.82799 8.88875,2.93388c4.00267,1.5172 6.52021,3.85344 9.71761,6.41136c8.85182,7.08145 16.39128,16.85746 17.8963,28.6279c0.02453,0.19186 0.01873,7.93072 0.01873,8.30546c0,3.66218 0.07777,7.33986 0,11c-0.02805,1.32013 0.27428,2.72071 -0.1903,3.95671c-0.37683,1.00256 -1.63601,1.43683 -2.18307,2.35762c-1.18346,1.99196 -1.84087,4.59495 -3.8123,5.8123c-4.90975,3.03175 -13.88335,1.37337 -19.31433,1.37337c-13.66667,0 -27.33333,0 -41,0c-32.33333,0 -64.66667,0 -97,0c-18.53993,0 -37.34789,-0.93907 -55.86058,-0.00389c-4.70621,0.23774 -9.25114,1.42582 -13.89308,1.99172c-3.31328,0.40393 -6.90519,0.01217 -10.24634,0.01217z"/></g></g></svg>