<svg version="1.1" xmlns="http://www.w3.org/2000/svg" xmlns:xlink="http://www.w3.org/1999/xlink" width="48" height="49" viewBox="0,0,48,49"><g transform="translate(-616,-335.5)"><g data-paper-data="{&quot;isPaintingLayer&quot;:true}" fill-rule="nonzero" stroke-linecap="butt" stroke-linejoin="miter" stroke-miterlimit="10" stroke-dasharray="" stroke-dashoffset="0" style="mix-blend-mode: normal"><path d="M617,383.5v-47h46v47z" data-paper-data="{&quot;index&quot;:null}" fill="#0090ff" stroke="#005a88" stroke-width="2"/><path d="M652.08733,347.53535c1.22614,0.16023 2.17289,1.20895 2.17289,2.47879c0,0.92406 -0.50135,1.73102 -1.24687,2.16373c-0.27704,0.16079 -0.58779,0.2699 -0.91906,0.31414c-0.71469,0.23514 -1.62707,0.53224 -1.92943,0.65539c-3.28222,1.33684 -6.37192,4.25574 -9.57507,5.96409c-1.46355,0.78056 -4.04927,0.69504 -5.3242,1.72825c-0.45632,0.3698 1.07335,0.47842 1.62041,0.69221c1.20895,0.47246 2.41151,0.82846 3.5943,1.40207c3.83089,1.85782 7.87899,3.06353 11.73715,4.87508c1.19992,0.56341 2.1675,1.4032 1.58114,3.16228c-0.98718,2.96155 -4.05256,1.34236 -5.82894,0.58114c-5.6948,-2.44037 -11.82944,-4.44001 -17.31761,-7.27254c-1.69309,-0.87383 -4.7765,-1.27007 -4.90739,-3.62608c-0.17176,-3.09167 4.24295,-3.44555 6.42416,-4.15085c6.62064,-2.14081 11.37106,-5.52228 17.4285,-8.75292c1.00809,-0.53765 1.81586,-0.53401 2.49002,-0.21478z" data-paper-data="{&quot;index&quot;:null}" fill="#ffffff" stroke="none" stroke-width="0.5"/></g></g></svg>