<svg version="1.1" xmlns="http://www.w3.org/2000/svg" xmlns:xlink="http://www.w3.org/1999/xlink" width="48" height="49" viewBox="0,0,48,49"><g transform="translate(-616,-335.5)"><g data-paper-data="{&quot;isPaintingLayer&quot;:true}" fill-rule="nonzero" stroke-linecap="butt" stroke-linejoin="miter" stroke-miterlimit="10" stroke-dasharray="" stroke-dashoffset="0" style="mix-blend-mode: normal"><path d="M617,383.5v-47h46v47z" fill="#dc0000" stroke="#b40000" stroke-width="2"/><path d="M648.17606,352.10948c-1.18495,1.063 -2.28872,2.19378 -3.33468,3.3718c3.8149,3.14366 7.22071,6.62602 9.32208,10.63197c1.16499,2.22088 8.39509,14.16287 0.35567,11.48306c-1.63082,-0.54361 -2.77574,-5.52343 -3.60225,-7.00573c-2.36368,-4.23916 -5.63855,-7.90369 -9.37443,-11.04322c-2.71337,3.60506 -5.16466,7.41099 -7.90448,10.93354c-1.22238,1.5716 -3.21864,6.63593 -5.15709,7.28208c-2.23607,0.74536 -3.16776,0.27951 -3.91312,-1.95656c-0.56899,-1.70698 3.60139,-5.95319 4.54699,-7.45941c2.54429,-4.05273 5.38467,-8.05484 8.4784,-11.85346c-3.51181,-2.65994 -6.96103,-5.62748 -10.65737,-7.93892c-0.80389,-0.5027 -3.83588,-1.44233 -4.28794,-2.23343c-0.73685,-0.43488 -1.23117,-1.23698 -1.23117,-2.15454c0,-1.38071 1.11929,-2.5 2.5,-2.5c0.46455,0 0.89951,0.12671 1.2722,0.34745c2.01602,0.33721 4.21831,2.2133 6.18897,3.65428c2.95132,2.15806 6.32981,4.40194 9.62832,6.83638c1.81034,-2.01198 3.69367,-3.94482 5.64275,-5.77255c0.8783,-0.82362 8.66367,-5.6644 9.86994,-3.55344c0.73685,0.43488 1.23117,1.23698 1.23117,2.15454c0,1.38071 -1.11929,2.5 -2.5,2.5c-0.00171,0 -0.00342,0 -0.00513,-0.00001c-2.19157,1.45756 -5.04174,2.45769 -7.06881,4.27615z" fill="#ffffff" stroke="none" stroke-width="0.5"/></g></g></svg>