<svg version="1.1" xmlns="http://www.w3.org/2000/svg" xmlns:xlink="http://www.w3.org/1999/xlink" width="48" height="49" viewBox="0,0,48,49"><g transform="translate(-616,-335.5)"><g data-paper-data="{&quot;isPaintingLayer&quot;:true}" fill-rule="nonzero" stroke-linecap="butt" stroke-linejoin="miter" stroke-miterlimit="10" stroke-dasharray="" stroke-dashoffset="0" style="mix-blend-mode: normal"><g><path d="M617,383.5v-47h46v47z" fill="#858585" stroke="#636363" stroke-width="2"/><path d="M621.8989,350.93444c-0.72099,-0.72098 -0.85387,-1.44198 -0.75842,-2.04303c-0.1493,-1.08595 0.60564,-1.99187 0.60564,-1.99187c1.34049,-1.59677 6.56717,-7.91911 9.42381,-5.06376c5.53747,5.53497 -3.23621,7.98337 -5.95878,9.00504l0.2233,0.09361c0,0 -1.76777,1.76776 -3.53553,0z" fill="#ffffff" stroke="none" stroke-width="0.5"/><path d="M631.38105,355.10408c2.33523,3.07373 5.25501,4.54896 8.50867,7.10614c3.03133,2.38244 5.19199,5.50262 7.87806,8.18868c1.19069,1.19069 3.30241,3.35023 5.06823,3.65215c0.42146,0.07206 0.86433,-0.04339 1.29687,-0.09954c-0.98129,-1.93286 -1.07837,-4.77045 -1.93109,-6.81186c-3.59986,-4.25103 -9.08929,-7.88441 -13.98284,-10.40177c-0.97049,-0.49924 -2.00254,-0.93774 -2.8249,-1.65526c-0.44005,-0.38394 -0.30521,-1.297 -0.83654,-1.53939c-0.38703,-0.17656 -0.71075,0.47202 -1.09272,0.65927c-0.67955,0.33312 -1.38831,0.6029 -2.08374,0.90157zM627.26819,352.09232l2.08035,-1.55685c1.82244,-0.77476 4.7779,-2.27113 6.76062,-1.74537c1.79039,0.47476 2.67067,2.6664 4.33857,3.47202c5.7694,2.78672 11.92291,7.30159 16.01716,12.2649c1.15885,2.66067 2.12887,5.39063 2.60208,8.27402c0.28065,1.71006 0.2278,5.96074 0.2278,5.96074c0,0 -8.62563,0.03192 -10.60109,-1.13022c-3.28101,-1.93018 -5.2017,-5.11234 -7.80701,-7.70944c-5.07787,-5.06186 -11.35582,-7.76149 -15.05728,-14.18177c0,0 -1.24035,-2.17061 0.93026,-3.41096c0.17566,-0.10037 0.34522,-0.17841 0.50853,-0.23707z" fill="#ffffff" stroke="none" stroke-width="0.5"/></g></g></g></svg>