<svg version="1.1" xmlns="http://www.w3.org/2000/svg" xmlns:xlink="http://www.w3.org/1999/xlink" width="78.92222" height="57.46996" viewBox="0,0,78.92222,57.46996"><g transform="translate(-250.33688,-140.87103)"><g data-paper-data="{&quot;isPaintingLayer&quot;:true}" fill-rule="nonzero" stroke="none" stroke-width="0.59874" stroke-linecap="butt" stroke-linejoin="miter" stroke-miterlimit="10" stroke-dasharray="" stroke-dashoffset="0" style="mix-blend-mode: normal"><path d="M312.61636,181.7003l0.14177,4.38706l2.53032,-0.61875l-1.00677,4.27701l2.67499,-1.277l-2.66804,9.87237l-0.00877,-6.25676l-2.68283,1.18695l1.17479,-4.80955l-2.61376,0.54514l2.4583,-7.30647" fill="#ffc906"/><path d="M315.69816,172.53328l4.59859,-2.10907l-1.97925,-0.95564l4.11707,-1.29205l-2.07556,-1.12134l8.90009,-1.88334l-4.33276,2.8768l2.58964,1.39907l-5.09788,1.15895l2.11408,1.42516l-8.834,0.50146" fill="#ffc906"/><g><path d="M307.92491,171.65956c-0.11743,0.52725 -0.31843,1.20667 -0.66048,1.83853c-0.38534,0.71326 -0.83498,1.35156 -1.16267,1.78431c-17.74128,-9.35684 -37.8815,-20.71271 -54.34598,-29.59354c0.08408,-0.71735 0.24012,-1.38298 0.60057,-2.09413c0.26339,-0.51909 0.62045,-0.98224 1.04634,-1.38638c0.02181,-0.01891 0.04445,-0.03179 0.0678,-0.0485c11.29429,5.91609 22.66015,12.33822 33.90651,18.40868c5.54828,2.99556 13.41531,7.28317 20.54791,11.09102z" fill="#42b5e8"/><path d="M307.92491,171.65956c3.59359,1.91895 7.00243,3.71639 9.83216,5.16481c-0.03146,0.83034 -0.43836,1.68302 -0.81985,2.36768c-0.244,0.43648 -0.65832,0.79924 -1.02319,1.17713c-3.15537,-1.60264 -6.44119,-3.30906 -9.81173,-5.08649c0.32768,-0.43276 0.77732,-1.07105 1.16267,-1.78431c0.34152,-0.63214 0.54252,-1.31156 0.65995,-1.83882z" fill="#ffffff"/><path d="M319.01327,175.82563c0.32779,1.34689 -0.16418,2.86341 -0.87007,4.01999c-0.29862,0.48858 -0.99004,1.52034 -1.7321,1.85709c-0.22666,0.29479 -0.64129,0.45257 -1.11134,0.21284c-8.44461,-4.32198 -22.03817,-11.75384 -30.38665,-16.26007c-11.42929,-6.17134 -22.6913,-12.5993 -34.03132,-19.0518c-0.03073,-0.01865 -0.05315,-0.05395 -0.07794,-0.08632c-0.01335,-0.0079 -0.0311,-0.01544 -0.03942,-0.02402c-0.91677,-0.93561 -0.1459,-2.71655 0.33525,-3.57684c0.36519,-0.65198 1.37467,-2.41971 2.43324,-1.97443c0.00625,0.00337 0.0231,0.01384 0.03524,0.0204c0.02144,0.00681 0.04094,0.00859 0.06331,0.01999c19.89021,10.24286 44.84465,24.20305 64.89295,34.37482c0.22082,0.03223 0.41801,0.17616 0.48884,0.46835zM315.91431,180.36864c0.36487,-0.37789 0.7792,-0.74065 1.02453,-1.17709c0.38096,-0.68494 0.78786,-1.53762 0.81985,-2.36768c-2.83055,-1.44818 -6.23886,-3.24533 -9.83297,-5.16457c-7.13288,-3.80732 -14.99991,-8.09493 -20.54791,-11.09102c-11.24636,-6.07046 -22.61222,-12.49259 -33.90651,-18.40868c-0.02335,0.01671 -0.046,0.02959 -0.0678,0.0485c-0.4256,0.40361 -0.78266,0.86676 -1.04634,1.38638c-0.36044,0.71114 -0.51649,1.37677 -0.60057,2.09413c16.46472,8.88164 36.60523,20.23699 54.34598,29.59354c3.37055,1.77743 6.65637,3.48385 9.81173,5.08649z" fill="#231f20"/></g></g></g></svg>