<svg version="1.1" xmlns="http://www.w3.org/2000/svg" xmlns:xlink="http://www.w3.org/1999/xlink" width="48" height="49" viewBox="0,0,48,49"><g transform="translate(-616,-335.5)"><g data-paper-data="{&quot;isPaintingLayer&quot;:true}" fill-rule="nonzero" stroke-linecap="butt" stroke-linejoin="miter" stroke-miterlimit="10" stroke-dasharray="" stroke-dashoffset="0" style="mix-blend-mode: normal"><path d="M617,383.5v-47h46v47z" fill="#0090ff" stroke="#005a88" stroke-width="2"/><path d="M630.40269,347.75013c6.05744,3.23064 10.80786,6.61211 17.4285,8.75292c2.18121,0.7053 6.59592,1.05918 6.42416,4.15085c-0.13089,2.35601 -3.2143,2.75225 -4.90739,3.62608c-5.48817,2.83253 -11.62281,4.83217 -17.31761,7.27254c-1.77638,0.76122 -4.84176,2.38041 -5.82894,-0.58114c-0.58636,-1.75908 0.38122,-2.59887 1.58114,-3.16228c3.85816,-1.81155 7.90626,-3.01726 11.73715,-4.87508c1.18279,-0.57361 2.38535,-0.92961 3.5943,-1.40207c0.54706,-0.21379 2.07673,-0.32241 1.62041,-0.69221c-1.27493,-1.03321 -3.86065,-0.94769 -5.3242,-1.72825c-3.20315,-1.70835 -6.29285,-4.62725 -9.57507,-5.96409c-0.30236,-0.12315 -1.21474,-0.42025 -1.92943,-0.65539c-0.33127,-0.04424 -0.64202,-0.15335 -0.91906,-0.31414c-0.74552,-0.43271 -1.24687,-1.23967 -1.24687,-2.16373c0,-1.26984 0.94675,-2.31856 2.17289,-2.47879c0.67416,-0.31923 1.48193,-0.32287 2.49002,0.21478z" fill="#ffffff" stroke="none" stroke-width="0.5"/></g></g></svg>